<svg width="20" height="20" viewBox="0 0 20 20" fill="none" xmlns="http://www.w3.org/2000/svg">
<path d="M10 17.2188C11.2188 17.2188 12.3594 16.9375 13.4219 16.375C14.4844 15.7812 15.3438 14.9844 16 13.9844C16 13.3906 15.625 12.8281 14.875 12.2969C14.25 11.8594 13.4375 11.5156 12.4375 11.2656C11.5312 11.0156 10.7188 10.8906 10 10.8906C9.28125 10.8906 8.46875 11.0156 7.5625 11.2656C6.5625 11.5156 5.75 11.8594 5.125 12.2969C4.375 12.8281 4 13.3906 4 13.9844C4.65625 14.9844 5.51562 15.7812 6.57812 16.375C7.64062 16.9375 8.78125 17.2188 10 17.2188ZM10 3.01562C9.15625 3.01562 8.4375 3.3125 7.84375 3.90625C7.28125 4.46875 7 5.17188 7 6.01562C7 6.82812 7.28125 7.53125 7.84375 8.125C8.4375 8.71875 9.15625 9.01562 10 9.01562C10.8438 9.01562 11.5469 8.71875 12.1094 8.125C12.7031 7.53125 13 6.82812 13 6.01562C13 5.17188 12.7031 4.46875 12.1094 3.90625C11.5469 3.3125 10.8438 3.01562 10 3.01562ZM10 0.015625C11.8125 0.015625 13.4844 0.46875 15.0156 1.375C16.5469 2.25 17.75 3.45312 18.625 4.98438C19.5312 6.51563 19.9844 8.1875 19.9844 10C19.9844 11.3125 19.7344 12.5938 19.2344 13.8438C18.7344 15.0625 18.0156 16.1406 17.0781 17.0781C16.1406 18.0156 15.0469 18.7344 13.7969 19.2344C12.5781 19.7344 11.3125 19.9844 10 19.9844C8.6875 19.9844 7.40625 19.7344 6.15625 19.2344C4.9375 18.7344 3.85938 18.0156 2.92188 17.0781C1.98438 16.1406 1.26562 15.0625 0.765625 13.8438C0.265625 12.5938 0.015625 11.3125 0.015625 10C0.015625 8.6875 0.265625 7.42188 0.765625 6.20312C1.26562 4.95312 1.98438 3.85938 2.92188 2.92188C3.85938 1.98438 4.9375 1.26563 6.15625 0.765625C7.40625 0.265625 8.6875 0.015625 10 0.015625Z" fill="#AAAAAA"/>
</svg>
